<?xml version="1.0" encoding="UTF-8"?>
<svg xmlns="http://www.w3.org/2000/svg" viewBox="77.74 82.22 243.83 239.19" width="243.83" height="239.19">
  <rect x="77.74" y="82.22" width="243.83" height="239.19" fill="#ffffff"/>
  <line x1="200" y1="200" x2="200" y2="196" stroke="#ff0000" stroke-width="2" stroke-linecap="round"/>
  <line x1="200" y1="196" x2="207" y2="196.06" stroke="#ff1900" stroke-width="2" stroke-linecap="round"/>
  <line x1="207" y1="196.06" x2="206.83" y2="206.06" stroke="#ff3300" stroke-width="2" stroke-linecap="round"/>
  <line x1="206.83" y1="206.06" x2="193.83" y2="205.72" stroke="#ff4d00" stroke-width="2" stroke-linecap="round"/>
  <line x1="193.83" y1="205.72" x2="194.39" y2="189.73" stroke="#ff6600" stroke-width="2" stroke-linecap="round"/>
  <line x1="194.39" y1="189.73" x2="213.37" y2="190.56" stroke="#ff8000" stroke-width="2" stroke-linecap="round"/>
  <line x1="213.37" y1="190.56" x2="212.22" y2="212.53" stroke="#ff9900" stroke-width="2" stroke-linecap="round"/>
  <line x1="212.22" y1="212.53" x2="187.27" y2="211" stroke="#ffb300" stroke-width="2" stroke-linecap="round"/>
  <line x1="187.27" y1="211" x2="189.22" y2="183.07" stroke="#ffcc00" stroke-width="2" stroke-linecap="round"/>
  <line x1="189.22" y1="183.07" x2="220.12" y2="185.5" stroke="#ffe500" stroke-width="2" stroke-linecap="round"/>
  <line x1="220.12" y1="185.5" x2="217.16" y2="219.37" stroke="#ffff00" stroke-width="2" stroke-linecap="round"/>
  <line x1="217.16" y1="219.37" x2="180.33" y2="215.83" stroke="#e6ff00" stroke-width="2" stroke-linecap="round"/>
  <line x1="180.33" y1="215.83" x2="184.51" y2="176.05" stroke="#ccff00" stroke-width="2" stroke-linecap="round"/>
  <line x1="184.51" y1="176.05" x2="227.23" y2="180.91" stroke="#b3ff00" stroke-width="2" stroke-linecap="round"/>
  <line x1="227.23" y1="180.91" x2="221.63" y2="226.57" stroke="#99ff00" stroke-width="2" stroke-linecap="round"/>
  <line x1="221.63" y1="226.57" x2="173.05" y2="220.17" stroke="#80ff00" stroke-width="2" stroke-linecap="round"/>
  <line x1="173.05" y1="220.17" x2="180.28" y2="168.68" stroke="#66ff00" stroke-width="2" stroke-linecap="round"/>
  <line x1="180.28" y1="168.68" x2="234.68" y2="176.81" stroke="#4dff00" stroke-width="2" stroke-linecap="round"/>
  <line x1="234.68" y1="176.81" x2="225.61" y2="234.1" stroke="#33ff00" stroke-width="2" stroke-linecap="round"/>
  <line x1="225.61" y1="234.1" x2="165.44" y2="224.03" stroke="#1aff00" stroke-width="2" stroke-linecap="round"/>
  <line x1="165.44" y1="224.03" x2="176.56" y2="161" stroke="#00ff00" stroke-width="2" stroke-linecap="round"/>
  <line x1="176.56" y1="161" x2="242.44" y2="173.21" stroke="#00ff19" stroke-width="2" stroke-linecap="round"/>
  <line x1="242.44" y1="173.21" x2="229.08" y2="241.92" stroke="#00ff33" stroke-width="2" stroke-linecap="round"/>
  <line x1="229.08" y1="241.92" x2="157.54" y2="227.37" stroke="#00ff4d" stroke-width="2" stroke-linecap="round"/>
  <line x1="157.54" y1="227.37" x2="173.35" y2="153.03" stroke="#00ff66" stroke-width="2" stroke-linecap="round"/>
  <line x1="173.35" y1="153.03" x2="250.47" y2="170.13" stroke="#00ff80" stroke-width="2" stroke-linecap="round"/>
  <line x1="250.47" y1="170.13" x2="232.03" y2="250.03" stroke="#00ff99" stroke-width="2" stroke-linecap="round"/>
  <line x1="232.03" y1="250.03" x2="149.38" y2="230.19" stroke="#00ffb3" stroke-width="2" stroke-linecap="round"/>
  <line x1="149.38" y1="230.19" x2="170.66" y2="144.8" stroke="#00ffcc" stroke-width="2" stroke-linecap="round"/>
  <line x1="170.66" y1="144.8" x2="258.77" y2="167.58" stroke="#00ffe5" stroke-width="2" stroke-linecap="round"/>
  <line x1="258.77" y1="167.58" x2="234.44" y2="258.38" stroke="#00ffff" stroke-width="2" stroke-linecap="round"/>
  <line x1="234.44" y1="258.38" x2="140.97" y2="232.46" stroke="#00e5ff" stroke-width="2" stroke-linecap="round"/>
  <line x1="140.97" y1="232.46" x2="168.53" y2="136.33" stroke="#00ccff" stroke-width="2" stroke-linecap="round"/>
  <line x1="168.53" y1="136.33" x2="267.29" y2="165.59" stroke="#00b2ff" stroke-width="2" stroke-linecap="round"/>
  <line x1="267.29" y1="165.59" x2="236.3" y2="266.95" stroke="#0099ff" stroke-width="2" stroke-linecap="round"/>
  <line x1="236.3" y1="266.95" x2="132.34" y2="234.18" stroke="#0080ff" stroke-width="2" stroke-linecap="round"/>
  <line x1="132.34" y1="234.18" x2="166.95" y2="127.66" stroke="#0066ff" stroke-width="2" stroke-linecap="round"/>
  <line x1="166.95" y1="127.66" x2="276.01" y2="164.15" stroke="#004cff" stroke-width="2" stroke-linecap="round"/>
  <line x1="276.01" y1="164.15" x2="237.59" y2="275.72" stroke="#0033ff" stroke-width="2" stroke-linecap="round"/>
  <line x1="237.59" y1="275.72" x2="123.53" y2="235.33" stroke="#0019ff" stroke-width="2" stroke-linecap="round"/>
  <line x1="123.53" y1="235.33" x2="165.94" y2="118.81" stroke="#0000ff" stroke-width="2" stroke-linecap="round"/>
  <line x1="165.94" y1="118.81" x2="284.9" y2="163.28" stroke="#1900ff" stroke-width="2" stroke-linecap="round"/>
  <line x1="284.9" y1="163.28" x2="238.31" y2="284.65" stroke="#3300ff" stroke-width="2" stroke-linecap="round"/>
  <line x1="238.31" y1="284.65" x2="114.57" y2="235.9" stroke="#4c00ff" stroke-width="2" stroke-linecap="round"/>
  <line x1="114.57" y1="235.9" x2="165.51" y2="109.81" stroke="#6600ff" stroke-width="2" stroke-linecap="round"/>
  <line x1="165.51" y1="109.81" x2="293.93" y2="163" stroke="#8000ff" stroke-width="2" stroke-linecap="round"/>
  <line x1="293.93" y1="163" x2="238.45" y2="293.71" stroke="#9900ff" stroke-width="2" stroke-linecap="round"/>
  <line x1="238.45" y1="293.71" x2="105.47" y2="235.89" stroke="#b300ff" stroke-width="2" stroke-linecap="round"/>
  <line x1="105.47" y1="235.89" x2="165.67" y2="100.69" stroke="#cc00ff" stroke-width="2" stroke-linecap="round"/>
  <line x1="165.67" y1="100.69" x2="303.08" y2="163.31" stroke="#e600ff" stroke-width="2" stroke-linecap="round"/>
  <line x1="303.08" y1="163.31" x2="237.99" y2="302.88" stroke="#ff00ff" stroke-width="2" stroke-linecap="round"/>
  <line x1="237.99" y1="302.88" x2="96.29" y2="235.29" stroke="#ff00e6" stroke-width="2" stroke-linecap="round"/>
  <line x1="96.29" y1="235.29" x2="166.43" y2="91.48" stroke="#ff00cc" stroke-width="2" stroke-linecap="round"/>
  <line x1="166.43" y1="91.48" x2="312.3" y2="164.21" stroke="#ff00b3" stroke-width="2" stroke-linecap="round"/>
  <line x1="312.3" y1="164.21" x2="236.94" y2="312.12" stroke="#ff0099" stroke-width="2" stroke-linecap="round"/>
  <line x1="236.94" y1="312.12" x2="87.03" y2="234.08" stroke="#ff0080" stroke-width="2" stroke-linecap="round"/>
  <line x1="87.03" y1="234.08" x2="167.78" y2="82.22" stroke="#ff0066" stroke-width="2" stroke-linecap="round"/>
  <line x1="167.78" y1="82.22" x2="321.57" y2="165.72" stroke="#ff004d" stroke-width="2" stroke-linecap="round"/>
  <line x1="321.57" y1="165.72" x2="235.28" y2="321.4" stroke="#ff0033" stroke-width="2" stroke-linecap="round"/>
  <line x1="235.28" y1="321.4" x2="77.74" y2="232.27" stroke="#ff001a" stroke-width="2" stroke-linecap="round"/>
</svg>