<?xml version="1.0" encoding="UTF-8"?>
<svg xmlns="http://www.w3.org/2000/svg" viewBox="50 80 280 260" width="280" height="260">
  <rect x="50" y="80" width="280" height="260" fill="#ffffff"/>
  <line x1="50" y1="80" x2="56.36" y2="80" stroke="#0000ff" stroke-width="1.13" stroke-linecap="round"/>
  <line x1="56.36" y1="80" x2="62.73" y2="80" stroke="#0000ff" stroke-width="1.38" stroke-linecap="round"/>
  <line x1="62.73" y1="80" x2="69.09" y2="80" stroke="#0000ff" stroke-width="1.63" stroke-linecap="round"/>
  <line x1="69.09" y1="80" x2="75.45" y2="80" stroke="#0000ff" stroke-width="1.88" stroke-linecap="round"/>
  <line x1="75.45" y1="80" x2="81.82" y2="80" stroke="#0000ff" stroke-width="2.13" stroke-linecap="round"/>
  <line x1="81.82" y1="80" x2="88.18" y2="80" stroke="#0000ff" stroke-width="2.38" stroke-linecap="round"/>
  <line x1="88.18" y1="80" x2="94.55" y2="80" stroke="#0000ff" stroke-width="2.63" stroke-linecap="round"/>
  <line x1="94.55" y1="80" x2="100.91" y2="80" stroke="#0000ff" stroke-width="2.88" stroke-linecap="round"/>
  <line x1="100.91" y1="80" x2="107.27" y2="80" stroke="#0000ff" stroke-width="3.13" stroke-linecap="round"/>
  <line x1="107.27" y1="80" x2="113.64" y2="80" stroke="#0000ff" stroke-width="3.38" stroke-linecap="round"/>
  <line x1="113.64" y1="80" x2="120" y2="80" stroke="#0000ff" stroke-width="3.63" stroke-linecap="round"/>
  <line x1="120" y1="80" x2="126.36" y2="80" stroke="#0000ff" stroke-width="3.88" stroke-linecap="round"/>
  <line x1="126.36" y1="80" x2="132.73" y2="80" stroke="#0000ff" stroke-width="4.13" stroke-linecap="round"/>
  <line x1="132.73" y1="80" x2="139.09" y2="80" stroke="#0000ff" stroke-width="4.38" stroke-linecap="round"/>
  <line x1="139.09" y1="80" x2="145.45" y2="80" stroke="#0000ff" stroke-width="4.63" stroke-linecap="round"/>
  <line x1="145.45" y1="80" x2="151.82" y2="80" stroke="#0000ff" stroke-width="4.88" stroke-linecap="round"/>
  <line x1="151.82" y1="80" x2="158.18" y2="80" stroke="#0000ff" stroke-width="5.13" stroke-linecap="round"/>
  <line x1="158.18" y1="80" x2="164.55" y2="80" stroke="#0000ff" stroke-width="5.38" stroke-linecap="round"/>
  <line x1="164.55" y1="80" x2="170.91" y2="80" stroke="#0000ff" stroke-width="5.63" stroke-linecap="round"/>
  <line x1="170.91" y1="80" x2="177.27" y2="80" stroke="#0000ff" stroke-width="5.88" stroke-linecap="round"/>
  <line x1="177.27" y1="80" x2="183.64" y2="80" stroke="#0000ff" stroke-width="6.13" stroke-linecap="round"/>
  <line x1="183.64" y1="80" x2="190" y2="80" stroke="#0000ff" stroke-width="6.38" stroke-linecap="round"/>
  <line x1="190" y1="80" x2="196.36" y2="80" stroke="#0000ff" stroke-width="6.63" stroke-linecap="round"/>
  <line x1="196.36" y1="80" x2="202.73" y2="80" stroke="#0000ff" stroke-width="6.88" stroke-linecap="round"/>
  <line x1="202.73" y1="80" x2="209.09" y2="80" stroke="#0000ff" stroke-width="7.13" stroke-linecap="round"/>
  <line x1="209.09" y1="80" x2="215.45" y2="80" stroke="#0000ff" stroke-width="7.38" stroke-linecap="round"/>
  <line x1="215.45" y1="80" x2="221.82" y2="80" stroke="#0000ff" stroke-width="7.63" stroke-linecap="round"/>
  <line x1="221.82" y1="80" x2="228.18" y2="80" stroke="#0000ff" stroke-width="7.88" stroke-linecap="round"/>
  <line x1="228.18" y1="80" x2="234.55" y2="80" stroke="#0000ff" stroke-width="8.13" stroke-linecap="round"/>
  <line x1="234.55" y1="80" x2="240.91" y2="80" stroke="#0000ff" stroke-width="8.38" stroke-linecap="round"/>
  <line x1="240.91" y1="80" x2="247.27" y2="80" stroke="#0000ff" stroke-width="8.63" stroke-linecap="round"/>
  <line x1="247.27" y1="80" x2="253.64" y2="80" stroke="#0000ff" stroke-width="8.88" stroke-linecap="round"/>
  <line x1="253.64" y1="80" x2="260" y2="80" stroke="#0000ff" stroke-width="9.13" stroke-linecap="round"/>
  <line x1="260" y1="80" x2="266.36" y2="80" stroke="#0000ff" stroke-width="9.38" stroke-linecap="round"/>
  <line x1="266.36" y1="80" x2="272.73" y2="80" stroke="#0000ff" stroke-width="9.63" stroke-linecap="round"/>
  <line x1="272.73" y1="80" x2="279.09" y2="80" stroke="#0000ff" stroke-width="9.88" stroke-linecap="round"/>
  <line x1="279.09" y1="80" x2="285.45" y2="80" stroke="#0000ff" stroke-width="10.13" stroke-linecap="round"/>
  <line x1="285.45" y1="80" x2="291.82" y2="80" stroke="#0000ff" stroke-width="10.38" stroke-linecap="round"/>
  <line x1="291.82" y1="80" x2="298.18" y2="80" stroke="#0000ff" stroke-width="10.63" stroke-linecap="round"/>
  <line x1="298.18" y1="80" x2="304.55" y2="80" stroke="#0000ff" stroke-width="10.88" stroke-linecap="round"/>
  <line x1="304.55" y1="80" x2="310.91" y2="80" stroke="#0000ff" stroke-width="11.13" stroke-linecap="round"/>
  <line x1="310.91" y1="80" x2="317.27" y2="80" stroke="#0000ff" stroke-width="11.38" stroke-linecap="round"/>
  <line x1="317.27" y1="80" x2="323.64" y2="80" stroke="#0000ff" stroke-width="11.63" stroke-linecap="round"/>
  <line x1="323.64" y1="80" x2="330" y2="80" stroke="#0000ff" stroke-width="11.88" stroke-linecap="round"/>
  <line x1="50" y1="160" x2="56.36" y2="160" stroke="#ff0000" stroke-width="11.88" stroke-linecap="round"/>
  <line x1="56.36" y1="160" x2="62.73" y2="160" stroke="#ff0000" stroke-width="11.63" stroke-linecap="round"/>
  <line x1="62.73" y1="160" x2="69.09" y2="160" stroke="#ff0000" stroke-width="11.38" stroke-linecap="round"/>
  <line x1="69.09" y1="160" x2="75.45" y2="160" stroke="#ff0000" stroke-width="11.13" stroke-linecap="round"/>
  <line x1="75.45" y1="160" x2="81.82" y2="160" stroke="#ff0000" stroke-width="10.88" stroke-linecap="round"/>
  <line x1="81.82" y1="160" x2="88.18" y2="160" stroke="#ff0000" stroke-width="10.63" stroke-linecap="round"/>
  <line x1="88.18" y1="160" x2="94.55" y2="160" stroke="#ff0000" stroke-width="10.38" stroke-linecap="round"/>
  <line x1="94.55" y1="160" x2="100.91" y2="160" stroke="#ff0000" stroke-width="10.13" stroke-linecap="round"/>
  <line x1="100.91" y1="160" x2="107.27" y2="160" stroke="#ff0000" stroke-width="9.88" stroke-linecap="round"/>
  <line x1="107.27" y1="160" x2="113.64" y2="160" stroke="#ff0000" stroke-width="9.63" stroke-linecap="round"/>
  <line x1="113.64" y1="160" x2="120" y2="160" stroke="#ff0000" stroke-width="9.38" stroke-linecap="round"/>
  <line x1="120" y1="160" x2="126.36" y2="160" stroke="#ff0000" stroke-width="9.13" stroke-linecap="round"/>
  <line x1="126.36" y1="160" x2="132.73" y2="160" stroke="#ff0000" stroke-width="8.88" stroke-linecap="round"/>
  <line x1="132.73" y1="160" x2="139.09" y2="160" stroke="#ff0000" stroke-width="8.63" stroke-linecap="round"/>
  <line x1="139.09" y1="160" x2="145.45" y2="160" stroke="#ff0000" stroke-width="8.38" stroke-linecap="round"/>
  <line x1="145.45" y1="160" x2="151.82" y2="160" stroke="#ff0000" stroke-width="8.13" stroke-linecap="round"/>
  <line x1="151.82" y1="160" x2="158.18" y2="160" stroke="#ff0000" stroke-width="7.88" stroke-linecap="round"/>
  <line x1="158.18" y1="160" x2="164.55" y2="160" stroke="#ff0000" stroke-width="7.63" stroke-linecap="round"/>
  <line x1="164.55" y1="160" x2="170.91" y2="160" stroke="#ff0000" stroke-width="7.38" stroke-linecap="round"/>
  <line x1="170.91" y1="160" x2="177.27" y2="160" stroke="#ff0000" stroke-width="7.13" stroke-linecap="round"/>
  <line x1="177.27" y1="160" x2="183.64" y2="160" stroke="#ff0000" stroke-width="6.88" stroke-linecap="round"/>
  <line x1="183.64" y1="160" x2="190" y2="160" stroke="#ff0000" stroke-width="6.63" stroke-linecap="round"/>
  <line x1="190" y1="160" x2="196.36" y2="160" stroke="#ff0000" stroke-width="6.38" stroke-linecap="round"/>
  <line x1="196.36" y1="160" x2="202.73" y2="160" stroke="#ff0000" stroke-width="6.13" stroke-linecap="round"/>
  <line x1="202.73" y1="160" x2="209.09" y2="160" stroke="#ff0000" stroke-width="5.87" stroke-linecap="round"/>
  <line x1="209.09" y1="160" x2="215.45" y2="160" stroke="#ff0000" stroke-width="5.63" stroke-linecap="round"/>
  <line x1="215.45" y1="160" x2="221.82" y2="160" stroke="#ff0000" stroke-width="5.38" stroke-linecap="round"/>
  <line x1="221.82" y1="160" x2="228.18" y2="160" stroke="#ff0000" stroke-width="5.13" stroke-linecap="round"/>
  <line x1="228.18" y1="160" x2="234.55" y2="160" stroke="#ff0000" stroke-width="4.88" stroke-linecap="round"/>
  <line x1="234.55" y1="160" x2="240.91" y2="160" stroke="#ff0000" stroke-width="4.62" stroke-linecap="round"/>
  <line x1="240.91" y1="160" x2="247.27" y2="160" stroke="#ff0000" stroke-width="4.37" stroke-linecap="round"/>
  <line x1="247.27" y1="160" x2="253.64" y2="160" stroke="#ff0000" stroke-width="4.13" stroke-linecap="round"/>
  <line x1="253.64" y1="160" x2="260" y2="160" stroke="#ff0000" stroke-width="3.88" stroke-linecap="round"/>
  <line x1="260" y1="160" x2="266.36" y2="160" stroke="#ff0000" stroke-width="3.63" stroke-linecap="round"/>
  <line x1="266.36" y1="160" x2="272.73" y2="160" stroke="#ff0000" stroke-width="3.38" stroke-linecap="round"/>
  <line x1="272.73" y1="160" x2="279.09" y2="160" stroke="#ff0000" stroke-width="3.13" stroke-linecap="round"/>
  <line x1="279.09" y1="160" x2="285.45" y2="160" stroke="#ff0000" stroke-width="2.88" stroke-linecap="round"/>
  <line x1="285.45" y1="160" x2="291.82" y2="160" stroke="#ff0000" stroke-width="2.63" stroke-linecap="round"/>
  <line x1="291.82" y1="160" x2="298.18" y2="160" stroke="#ff0000" stroke-width="2.38" stroke-linecap="round"/>
  <line x1="298.18" y1="160" x2="304.55" y2="160" stroke="#ff0000" stroke-width="2.13" stroke-linecap="round"/>
  <line x1="304.55" y1="160" x2="310.91" y2="160" stroke="#ff0000" stroke-width="1.88" stroke-linecap="round"/>
  <line x1="310.91" y1="160" x2="317.27" y2="160" stroke="#ff0000" stroke-width="1.63" stroke-linecap="round"/>
  <line x1="317.27" y1="160" x2="323.64" y2="160" stroke="#ff0000" stroke-width="1.38" stroke-linecap="round"/>
  <line x1="323.64" y1="160" x2="330" y2="160" stroke="#ff0000" stroke-width="1.13" stroke-linecap="round"/>
  <line x1="50" y1="230" x2="106" y2="230" stroke="#008000" stroke-width="2.1" stroke-linecap="round"/>
  <line x1="106" y1="230" x2="162" y2="230" stroke="#008000" stroke-width="4.3" stroke-linecap="round"/>
  <line x1="162" y1="230" x2="218" y2="230" stroke="#008000" stroke-width="6.5" stroke-linecap="round"/>
  <line x1="218" y1="230" x2="274" y2="230" stroke="#008000" stroke-width="8.7" stroke-linecap="round"/>
  <line x1="274" y1="230" x2="330" y2="230" stroke="#008000" stroke-width="10.9" stroke-linecap="round"/>
  <path d="M 200,340 A 70,70 0 0,1 209.14,339.4" stroke="#800080" stroke-width="1.13" fill="none" stroke-linecap="round"/>
  <path d="M 209.14,339.4 A 70,70 0 0,1 218.12,337.61" stroke="#800080" stroke-width="1.38" fill="none" stroke-linecap="round"/>
  <path d="M 218.12,337.61 A 70,70 0 0,1 226.79,334.67" stroke="#800080" stroke-width="1.63" fill="none" stroke-linecap="round"/>
  <path d="M 226.79,334.67 A 70,70 0 0,1 235,330.62" stroke="#800080" stroke-width="1.88" fill="none" stroke-linecap="round"/>
  <path d="M 235,330.62 A 70,70 0 0,1 242.61,325.53" stroke="#800080" stroke-width="2.13" fill="none" stroke-linecap="round"/>
  <path d="M 242.61,325.53 A 70,70 0 0,1 249.5,319.5" stroke="#800080" stroke-width="2.38" fill="none" stroke-linecap="round"/>
  <path d="M 249.5,319.5 A 70,70 0 0,1 255.53,312.61" stroke="#800080" stroke-width="2.63" fill="none" stroke-linecap="round"/>
  <path d="M 255.53,312.61 A 70,70 0 0,1 260.62,305" stroke="#800080" stroke-width="2.88" fill="none" stroke-linecap="round"/>
  <path d="M 260.62,305 A 70,70 0 0,1 264.67,296.79" stroke="#800080" stroke-width="3.13" fill="none" stroke-linecap="round"/>
  <path d="M 264.67,296.79 A 70,70 0 0,1 267.61,288.12" stroke="#800080" stroke-width="3.38" fill="none" stroke-linecap="round"/>
  <path d="M 267.61,288.12 A 70,70 0 0,1 269.4,279.14" stroke="#800080" stroke-width="3.62" fill="none" stroke-linecap="round"/>
  <path d="M 269.4,279.14 A 70,70 0 0,1 270,270" stroke="#800080" stroke-width="3.88" fill="none" stroke-linecap="round"/>
  <path d="M 270,270 A 70,70 0 0,1 269.4,260.86" stroke="#800080" stroke-width="4.13" fill="none" stroke-linecap="round"/>
  <path d="M 269.4,260.86 A 70,70 0 0,1 267.61,251.88" stroke="#800080" stroke-width="4.38" fill="none" stroke-linecap="round"/>
  <path d="M 267.61,251.88 A 70,70 0 0,1 264.67,243.21" stroke="#800080" stroke-width="4.63" fill="none" stroke-linecap="round"/>
  <path d="M 264.67,243.21 A 70,70 0 0,1 260.62,235" stroke="#800080" stroke-width="4.88" fill="none" stroke-linecap="round"/>
  <path d="M 260.62,235 A 70,70 0 0,1 255.53,227.39" stroke="#800080" stroke-width="5.13" fill="none" stroke-linecap="round"/>
  <path d="M 255.53,227.39 A 70,70 0 0,1 249.5,220.5" stroke="#800080" stroke-width="5.38" fill="none" stroke-linecap="round"/>
  <path d="M 249.5,220.5 A 70,70 0 0,1 242.61,214.47" stroke="#800080" stroke-width="5.63" fill="none" stroke-linecap="round"/>
  <path d="M 242.61,214.47 A 70,70 0 0,1 235,209.38" stroke="#800080" stroke-width="5.88" fill="none" stroke-linecap="round"/>
  <path d="M 235,209.38 A 70,70 0 0,1 226.79,205.33" stroke="#800080" stroke-width="6.13" fill="none" stroke-linecap="round"/>
  <path d="M 226.79,205.33 A 70,70 0 0,1 218.12,202.39" stroke="#800080" stroke-width="6.38" fill="none" stroke-linecap="round"/>
  <path d="M 218.12,202.39 A 70,70 0 0,1 209.14,200.6" stroke="#800080" stroke-width="6.63" fill="none" stroke-linecap="round"/>
  <path d="M 209.14,200.6 A 70,70 0 0,1 200,200" stroke="#800080" stroke-width="6.88" fill="none" stroke-linecap="round"/>
  <path d="M 200,200 A 70,70 0 0,1 190.86,200.6" stroke="#800080" stroke-width="7.12" fill="none" stroke-linecap="round"/>
  <path d="M 190.86,200.6 A 70,70 0 0,1 181.88,202.39" stroke="#800080" stroke-width="7.37" fill="none" stroke-linecap="round"/>
  <path d="M 181.88,202.39 A 70,70 0 0,1 173.21,205.33" stroke="#800080" stroke-width="7.62" fill="none" stroke-linecap="round"/>
  <path d="M 173.21,205.33 A 70,70 0 0,1 165,209.38" stroke="#800080" stroke-width="7.88" fill="none" stroke-linecap="round"/>
  <path d="M 165,209.38 A 70,70 0 0,1 157.39,214.47" stroke="#800080" stroke-width="8.13" fill="none" stroke-linecap="round"/>
  <path d="M 157.39,214.47 A 70,70 0 0,1 150.5,220.5" stroke="#800080" stroke-width="8.38" fill="none" stroke-linecap="round"/>
  <path d="M 150.5,220.5 A 70,70 0 0,1 144.47,227.39" stroke="#800080" stroke-width="8.63" fill="none" stroke-linecap="round"/>
  <path d="M 144.47,227.39 A 70,70 0 0,1 139.38,235" stroke="#800080" stroke-width="8.88" fill="none" stroke-linecap="round"/>
  <path d="M 139.38,235 A 70,70 0 0,1 135.33,243.21" stroke="#800080" stroke-width="9.13" fill="none" stroke-linecap="round"/>
  <path d="M 135.33,243.21 A 70,70 0 0,1 132.39,251.88" stroke="#800080" stroke-width="9.38" fill="none" stroke-linecap="round"/>
  <path d="M 132.39,251.88 A 70,70 0 0,1 130.6,260.86" stroke="#800080" stroke-width="9.63" fill="none" stroke-linecap="round"/>
  <path d="M 130.6,260.86 A 70,70 0 0,1 130,270" stroke="#800080" stroke-width="9.88" fill="none" stroke-linecap="round"/>
</svg>