<?xml version="1.0" encoding="UTF-8"?>
<svg xmlns="http://www.w3.org/2000/svg" viewBox="0 0 400 400" width="400" height="400">
  <line x1="200" y1="200" x2="200" y2="0" stroke="#ff8000" stroke-width="2" stroke-linecap="round"/>
  <line x1="200" y1="0" x2="234.73" y2="196.96" stroke="#ff8000" stroke-width="2" stroke-linecap="round"/>
  <line x1="234.73" y1="196.96" x2="166.33" y2="9.02" stroke="#ff8000" stroke-width="2" stroke-linecap="round"/>
  <line x1="166.33" y1="9.02" x2="266.33" y2="182.23" stroke="#ff8000" stroke-width="2" stroke-linecap="round"/>
  <line x1="266.33" y1="182.23" x2="137.77" y2="29.02" stroke="#ff8000" stroke-width="2" stroke-linecap="round"/>
  <line x1="137.77" y1="29.02" x2="290.98" y2="157.58" stroke="#ff8000" stroke-width="2" stroke-linecap="round"/>
  <line x1="290.98" y1="157.58" x2="117.77" y2="57.58" stroke="#ff8000" stroke-width="2" stroke-linecap="round"/>
  <line x1="117.77" y1="57.58" x2="305.71" y2="125.98" stroke="#ff8000" stroke-width="2" stroke-linecap="round"/>
  <line x1="305.71" y1="125.98" x2="108.75" y2="91.25" stroke="#ff8000" stroke-width="2" stroke-linecap="round"/>
  <line x1="108.75" y1="91.25" x2="308.75" y2="91.25" stroke="#ff8000" stroke-width="2" stroke-linecap="round"/>
  <line x1="308.75" y1="91.25" x2="111.79" y2="125.98" stroke="#ff8000" stroke-width="2" stroke-linecap="round"/>
  <line x1="111.79" y1="125.98" x2="299.73" y2="57.58" stroke="#ff8000" stroke-width="2" stroke-linecap="round"/>
  <line x1="299.73" y1="57.58" x2="126.52" y2="157.58" stroke="#ff8000" stroke-width="2" stroke-linecap="round"/>
  <line x1="126.52" y1="157.58" x2="279.73" y2="29.02" stroke="#ff8000" stroke-width="2" stroke-linecap="round"/>
  <line x1="279.73" y1="29.02" x2="151.17" y2="182.23" stroke="#ff8000" stroke-width="2" stroke-linecap="round"/>
  <line x1="151.17" y1="182.23" x2="251.17" y2="9.02" stroke="#ff8000" stroke-width="2" stroke-linecap="round"/>
  <line x1="251.17" y1="9.02" x2="182.77" y2="196.96" stroke="#ff8000" stroke-width="2" stroke-linecap="round"/>
  <line x1="182.77" y1="196.96" x2="217.5" y2="0" stroke="#ff8000" stroke-width="2" stroke-linecap="round"/>
  <line x1="217.5" y1="0" x2="217.5" y2="200" stroke="#ff8000" stroke-width="2" stroke-linecap="round"/>
  <line x1="217.5" y1="200" x2="182.77" y2="3.04" stroke="#ff8000" stroke-width="2" stroke-linecap="round"/>
  <line x1="182.77" y1="3.04" x2="251.17" y2="190.98" stroke="#ff8000" stroke-width="2" stroke-linecap="round"/>
  <line x1="251.17" y1="190.98" x2="151.17" y2="17.77" stroke="#ff8000" stroke-width="2" stroke-linecap="round"/>
  <line x1="151.17" y1="17.77" x2="279.73" y2="170.98" stroke="#ff8000" stroke-width="2" stroke-linecap="round"/>
  <line x1="279.73" y1="170.98" x2="126.52" y2="42.42" stroke="#ff8000" stroke-width="2" stroke-linecap="round"/>
  <line x1="126.52" y1="42.42" x2="299.73" y2="142.42" stroke="#ff8000" stroke-width="2" stroke-linecap="round"/>
  <line x1="299.73" y1="142.42" x2="111.79" y2="74.02" stroke="#ff8000" stroke-width="2" stroke-linecap="round"/>
  <line x1="111.79" y1="74.02" x2="308.75" y2="108.75" stroke="#ff8000" stroke-width="2" stroke-linecap="round"/>
  <line x1="308.75" y1="108.75" x2="108.75" y2="108.75" stroke="#ff8000" stroke-width="2" stroke-linecap="round"/>
  <line x1="108.75" y1="108.75" x2="305.71" y2="74.02" stroke="#ff8000" stroke-width="2" stroke-linecap="round"/>
  <line x1="305.71" y1="74.02" x2="117.77" y2="142.42" stroke="#ff8000" stroke-width="2" stroke-linecap="round"/>
  <line x1="117.77" y1="142.42" x2="290.98" y2="42.42" stroke="#ff8000" stroke-width="2" stroke-linecap="round"/>
  <line x1="290.98" y1="42.42" x2="137.77" y2="170.98" stroke="#ff8000" stroke-width="2" stroke-linecap="round"/>
  <line x1="137.77" y1="170.98" x2="266.33" y2="17.77" stroke="#ff8000" stroke-width="2" stroke-linecap="round"/>
  <line x1="266.33" y1="17.77" x2="166.33" y2="190.98" stroke="#ff8000" stroke-width="2" stroke-linecap="round"/>
  <line x1="166.33" y1="190.98" x2="234.73" y2="3.04" stroke="#ff8000" stroke-width="2" stroke-linecap="round"/>
  <line x1="234.73" y1="3.04" x2="200" y2="200" stroke="#ff8000" stroke-width="2" stroke-linecap="round"/>
</svg>
